<svg viewBox="0 0 256 256" xmlns="http://www.w3.org/2000/svg"><g data-name="cardano ada"><circle cx="128" cy="128" data-name="Эллипс 6" r="128" fill="#ffffff" class="fill-3468d1"></circle><path d="M265.727 717.735a12.652 12.652 0 1 1-12.654 12.652 12.654 12.654 0 0 1 12.654-12.652Zm30.546 0a12.652 12.652 0 1 1-12.655 12.652 12.654 12.654 0 0 1 12.655-12.652Zm0 53.226a12.652 12.652 0 1 1-12.655 12.652 12.653 12.653 0 0 1 12.655-12.652Zm-30.546 0a12.652 12.652 0 1 1-12.654 12.652 12.653 12.653 0 0 1 12.654-12.652Zm-15.709-26.177a12.652 12.652 0 1 1-12.654 12.652 12.654 12.654 0 0 1 12.654-12.652Zm61.964 0a12.652 12.652 0 1 1-12.655 12.652 12.653 12.653 0 0 1 12.655-12.652Zm14.4-21.813a7.853 7.853 0 1 1-7.855 7.853 7.853 7.853 0 0 1 7.855-7.853Zm0 52.352a7.853 7.853 0 1 1-7.855 7.853 7.853 7.853 0 0 1 7.855-7.853Zm-90.764 0a7.853 7.853 0 1 1-7.854 7.853 7.854 7.854 0 0 1 7.854-7.853Zm0-52.352a7.853 7.853 0 1 1-7.854 7.853 7.854 7.854 0 0 1 7.854-7.853ZM281 696.794a7.853 7.853 0 1 1-7.855 7.853 7.853 7.853 0 0 1 7.855-7.853Zm0 104.706a7.853 7.853 0 1 1-7.855 7.853A7.853 7.853 0 0 1 281 801.5Zm33.6 7.853a6.544 6.544 0 1 1-6.546 6.544 6.544 6.544 0 0 1 6.546-6.544Zm-67.2 0a6.544 6.544 0 1 1-6.546 6.544 6.544 6.544 0 0 1 6.546-6.544Zm0-117.794a6.544 6.544 0 1 1-6.546 6.544 6.544 6.544 0 0 1 6.546-6.544Zm67.2 0a6.544 6.544 0 1 1-6.546 6.544 6.544 6.544 0 0 1 6.546-6.544Zm34.036 58.461a6.544 6.544 0 1 1-6.545 6.544 6.545 6.545 0 0 1 6.545-6.544Zm-135.273 0a6.544 6.544 0 1 1-6.545 6.544 6.544 6.544 0 0 1 6.545-6.544Zm-4.8-40.138a5.236 5.236 0 1 1-5.236 5.235 5.236 5.236 0 0 1 5.236-5.235Zm0 83.765a5.236 5.236 0 1 1-5.236 5.235 5.236 5.236 0 0 1 5.236-5.235Zm144.873 0a5.236 5.236 0 1 1-5.236 5.235 5.236 5.236 0 0 1 5.236-5.235Zm0-83.765a5.236 5.236 0 1 1-5.236 5.235 5.236 5.236 0 0 1 5.236-5.235ZM281 668a5.236 5.236 0 1 1-5.237 5.235A5.235 5.235 0 0 1 281 668Zm0 167.529a5.236 5.236 0 1 1-5.237 5.236 5.236 5.236 0 0 1 5.237-5.236Zm46.254-3.49a4.363 4.363 0 1 1-4.363 4.363 4.363 4.363 0 0 1 4.363-4.363Zm-92.509 0a4.363 4.363 0 1 1-4.363 4.363 4.363 4.363 0 0 1 4.363-4.363Zm0-158.8a4.363 4.363 0 1 1-4.363 4.363 4.363 4.363 0 0 1 4.363-4.367Zm92.509 0a4.363 4.363 0 1 1-4.363 4.363 4.363 4.363 0 0 1 4.363-4.367Zm45.382 79.4a4.363 4.363 0 1 1-4.363 4.361 4.363 4.363 0 0 1 4.363-4.363Zm-183.273 0A4.363 4.363 0 1 1 185 757a4.363 4.363 0 0 1 4.363-4.363Z" data-name="Эллипс 6 копия 29" transform="translate(-152 -629)" fill="#000000" fill-rule="evenodd" class="fill-ffffff"></path></g></svg>