<svg viewBox="0 0 512 512" xmlns="http://www.w3.org/2000/svg"><g data-name="1"><path d="M262.12 378a15 15 0 0 1-7.33-1.91 230.8 230.8 0 0 1-118.11-201.21q0-2.5.06-5c.8-37.5 14.81-69.11 40.52-91.4C199.91 58.82 230.05 48 262.12 48s62.2 10.82 84.88 30.47c25.71 22.29 39.72 53.9 40.52 91.4q.06 2.5.06 5a230.8 230.8 0 0 1-118.14 201.22 15 15 0 0 1-7.32 1.91Zm0-300c-24.85 0-48 8.21-65.21 23.13-19.13 16.59-29.57 40.58-30.18 69.38v4.37a200.76 200.76 0 0 0 95.44 170.73 200.75 200.75 0 0 0 95.43-170.73c0-1.46 0-2.92-.05-4.37-.61-28.8-11.05-52.79-30.18-69.38C310.12 86.21 287 78 262.12 78Z" fill="#ffffff" class="fill-000000"></path><path d="M262.43 247.4a72.13 72.13 0 1 1 72.13-72.13 72.21 72.21 0 0 1-72.13 72.13Zm0-114.25a42.13 42.13 0 1 0 42.13 42.12 42.17 42.17 0 0 0-42.13-42.12ZM262.12 450c-40.47 0-78.75-8.06-107.79-22.69C122 411 104.23 388.19 104.23 363c0-33.41 31.25-62.26 83.6-77.16A15 15 0 0 1 196 314.7c-37.55 10.69-61.81 29.65-61.81 48.3 0 27 52.52 57 127.89 57S390 390 390 363c0-18.65-24.26-37.61-61.81-48.3a15 15 0 0 1 8.21-28.86c52.35 14.9 83.6 43.75 83.6 77.16 0 25.19-17.79 48-50.1 64.31C340.86 441.94 302.58 450 262.12 450Z" fill="#ffffff" class="fill-000000"></path></g></svg>